<?xml version="1.0" standalone="no"?>
<!DOCTYPE svg PUBLIC "-//W3C//DTD SVG 20010904//EN"
 "http://www.w3.org/TR/2001/REC-SVG-20010904/DTD/svg10.dtd">
<svg version="1.0" xmlns="http://www.w3.org/2000/svg"
 width="605.000000pt" height="115.000000pt" viewBox="0 0 605.000000 115.000000"
 preserveAspectRatio="xMidYMid meet">

<g transform="translate(0.000000,115.000000) scale(0.100000,-0.100000)"
fill="#000000" stroke="none">
<path d="M332 1129 c-89 -17 -155 -75 -181 -159 -22 -73 -122 -775 -116 -814
9 -58 34 -94 85 -119 l45 -22 2770 0 c2648 0 2772 1 2817 18 52 20 110 78 133
133 8 21 47 207 86 414 81 425 82 449 25 506 -21 21 -48 35 -84 43 -64 13
-5511 14 -5580 0z m2208 -34 c0 -9 -22 -140 -50 -293 -27 -152 -69 -385 -92
-517 l-43 -240 -1055 -3 c-678 -1 -1075 2 -1110 8 -70 13 -102 36 -118 88 -12
37 -9 73 43 414 31 205 61 389 67 408 24 78 80 125 167 140 25 4 529 8 1119 9
956 1 1072 -1 1072 -14z m602 -85 c154 -47 212 -202 132 -350 -39 -72 -96
-119 -254 -207 -74 -42 -142 -82 -150 -90 -12 -11 12 -13 149 -13 172 0 196
-5 211 -46 14 -35 -6 -107 -37 -136 -24 -23 -26 -23 -321 -26 -203 -2 -304 1
-323 8 -34 15 -53 59 -45 104 15 79 79 135 336 295 83 52 160 107 171 123 12
16 23 47 26 69 8 57 -23 89 -87 89 -56 0 -91 -24 -120 -80 -29 -57 -74 -90
-121 -90 -72 0 -108 32 -108 95 -1 109 108 221 249 259 82 22 215 20 292 -4z
m727 10 c107 -18 174 -65 222 -160 18 -35 24 -66 27 -142 11 -239 -96 -447
-275 -535 -67 -33 -86 -38 -168 -41 -125 -6 -181 13 -251 82 -67 68 -89 129
-88 251 1 224 111 423 276 504 52 25 114 42 183 50 6 0 39 -4 74 -9z m856 -1
c80 -15 125 -39 174 -95 52 -59 71 -122 71 -233 -1 -229 -110 -426 -286 -512
-66 -33 -73 -34 -184 -34 -100 0 -121 3 -156 22 -59 32 -103 79 -133 143 -22
47 -25 69 -25 155 0 279 152 501 377 550 79 17 91 17 162 4z m896 -9 c48 -13
113 -58 144 -100 108 -146 53 -475 -105 -637 -97 -99 -198 -138 -339 -131 -71
3 -95 9 -139 33 -108 59 -146 137 -146 300 1 174 53 308 163 420 111 113 267
155 422 115z"/>
<path d="M1248 1010 c-152 -27 -283 -147 -344 -316 -79 -217 -42 -433 89 -521
66 -44 116 -56 222 -51 76 3 101 9 158 37 172 82 280 283 279 516 0 117 -26
190 -91 255 -70 70 -193 102 -313 80z m122 -228 c37 -38 54 -101 46 -178 -20
-197 -133 -323 -243 -270 -24 12 -40 30 -55 63 -50 114 17 349 113 396 54 26
106 22 139 -11z"/>
<path d="M358 994 c-38 -16 -68 -62 -68 -103 0 -12 11 -33 25 -46 22 -22 32
-25 105 -25 71 0 80 -2 80 -18 0 -10 -20 -149 -45 -308 -48 -303 -48 -329 -8
-360 28 -21 96 -17 127 7 37 29 52 63 65 144 56 364 82 518 86 526 4 5 40 9
81 9 80 0 108 9 136 44 25 31 23 98 -3 122 -19 18 -41 19 -283 21 -217 2 -267
0 -298 -13z"/>
<path d="M1877 996 c-42 -16 -61 -36 -76 -81 -6 -16 -35 -184 -65 -372 -59
-361 -60 -390 -16 -413 51 -27 136 3 159 57 6 16 20 76 29 133 11 68 22 106
32 110 8 4 51 17 95 29 240 65 365 189 365 364 0 83 -23 124 -85 157 -44 22
-60 24 -224 27 -134 3 -185 0 -214 -11z m262 -187 c35 -12 49 -46 32 -78 -14
-26 -81 -65 -154 -90 -66 -23 -63 -29 -42 89 8 47 15 86 15 88 0 7 122 0 149
-9z"/>
<path d="M3714 806 c-86 -38 -158 -219 -138 -345 15 -96 77 -138 159 -107 84
33 145 158 145 300 0 136 -65 196 -166 152z"/>
<path d="M4564 806 c-69 -31 -127 -142 -140 -272 -24 -227 174 -263 272 -51
47 105 45 266 -6 312 -25 23 -88 28 -126 11z"/>
<path d="M5410 803 c-81 -42 -135 -162 -135 -300 0 -67 4 -87 21 -110 99 -133
267 9 282 238 5 83 -7 136 -38 164 -28 25 -89 29 -130 8z"/>
</g>
</svg>
